<svg width="71" height="71" viewBox="0 0 71 71" fill="none" xmlns="http://www.w3.org/2000/svg">
<path fill-rule="evenodd" clip-rule="evenodd" d="M17.75 71H53.25C55.581 71.0003 57.8893 70.5413 60.0429 69.6494C62.1966 68.7575 64.1534 67.45 65.8017 65.8017C67.45 64.1534 68.7575 62.1966 69.6494 60.0429C70.5413 57.8893 71.0003 55.581 71 53.25V17.75C71.0003 15.419 70.5413 13.1107 69.6494 10.9571C68.7575 8.80341 67.45 6.84656 65.8017 5.19827C64.1534 3.54998 62.1966 2.24253 60.0429 1.3506C57.8893 0.458676 55.581 -0.000262174 53.25 1.1236e-07H17.75C15.419 -0.000262174 13.1107 0.458676 10.9571 1.3506C8.80341 2.24253 6.84656 3.54998 5.19827 5.19827C3.54998 6.84656 2.24253 8.80341 1.3506 10.9571C0.458675 13.1107 -0.000262286 15.419 0 17.75V53.25C-0.000262286 55.581 0.458675 57.8893 1.3506 60.0429C2.24253 62.1966 3.54998 64.1534 5.19827 65.8017C6.84656 67.45 8.80341 68.7575 10.9571 69.6494C13.1107 70.5413 15.419 71.0003 17.75 71" fill="#7387DC"/>
<path fill-rule="evenodd" clip-rule="evenodd" d="M35.3684 22.875H15.7895C13.2799 22.8748 10.8661 21.8963 9.04671 20.1415C7.22732 18.3867 6.14127 15.9897 6.01284 13.4454C5.88441 10.9011 6.7234 8.40397 8.35656 6.46958C9.98972 4.5352 12.2923 3.31136 14.7888 3.05079C15.126 3.03202 15.4523 3 15.7895 3H50.5965C52.882 2.99974 55.1452 3.45652 57.2568 4.34426C59.3684 5.232 61.2871 6.53331 62.9032 8.17386C64.5193 9.81442 65.8012 11.7621 66.6758 13.9056C67.5503 16.0492 68.0003 18.3466 68 20.6667V56C68 47.2147 64.562 38.7892 58.4424 32.5771C52.3228 26.3649 44.0229 22.875 35.3684 22.875" fill="#8CA0F5"/>
<path fill-rule="evenodd" clip-rule="evenodd" d="M18 35.6381C21.5601 35.6381 25.0402 36.6725 28.0003 38.6106C30.9603 40.5487 33.2674 43.3034 34.6298 46.5264C35.9922 49.7493 36.3487 53.2957 35.6541 56.7172C34.9596 60.1386 33.2453 63.2814 30.7279 65.7482C28.2106 68.2149 22.4917 70.3194 19 71C15.5 71 13.5493 71 9.99999 71C6.4507 71 3.04224 71 -9.53672e-07 71C-9.53672e-07 67.0252 -9.53672e-07 56.7646 -9.53672e-07 53.2762V18C-9.53672e-07 22.6779 1.89642 27.1642 5.27207 30.472C8.64773 33.7798 13.2261 35.6381 18 35.6381Z" fill="#5A6EC3"/>
</svg>
