<svg width="32" height="35" viewBox="0 0 32 35" fill="none" xmlns="http://www.w3.org/2000/svg">
<path d="M12.664 15.116C12.2553 15.0816 11.8455 15.1697 11.4884 15.3687C11.1313 15.5677 10.8435 15.8683 10.6626 16.2311C10.4818 16.5939 10.4164 17.0021 10.475 17.4022C10.5335 17.8022 10.7133 18.1756 10.9908 18.4733C11.2683 18.771 11.6306 18.9792 12.0302 19.0707C12.4298 19.1621 12.8481 19.1326 13.2304 18.9858C13.6127 18.8391 13.9411 18.5821 14.1726 18.2484C14.4042 17.9147 14.528 17.5199 14.528 17.1157C14.5499 16.607 14.3659 16.1105 14.0163 15.7355C13.6667 15.3605 13.1803 15.1377 12.664 15.116Z" fill="white"/>
<path d="M19.336 15.116C18.9272 15.0816 18.5175 15.1697 18.1604 15.3687C17.8033 15.5677 17.5155 15.8683 17.3346 16.2311C17.1538 16.5939 17.0884 17.0021 17.147 17.4022C17.2055 17.8022 17.3853 18.1756 17.6628 18.4733C17.9403 18.771 18.3026 18.9792 18.7022 19.0707C19.1018 19.1621 19.5201 19.1326 19.9024 18.9858C20.2847 18.8391 20.6131 18.5821 20.8446 18.2484C21.0761 17.9147 21.2 17.5199 21.2 17.1157C21.2219 16.607 21.0378 16.1105 20.6883 15.7355C20.3387 15.3605 19.8523 15.1377 19.336 15.116Z" fill="white"/>
<path d="M32 3.711C32.0013 3.22451 31.9052 2.74255 31.7172 2.29267C31.5293 1.8428 31.2532 1.43383 30.9047 1.08917C30.5563 0.744511 30.1423 0.470913 29.6864 0.284024C29.2305 0.0971345 28.7417 0.000619995 28.248 0H3.75201C3.25826 0.000619995 2.76947 0.0971345 2.3136 0.284024C1.85773 0.470913 1.44373 0.744511 1.09526 1.08917C0.746791 1.43383 0.470696 1.8428 0.282765 2.29267C0.0948336 2.74255 -0.00124838 3.22451 1.37479e-05 3.711V27.5921C-0.00132209 28.0787 0.094704 28.5607 0.282599 29.0107C0.470495 29.4606 0.746573 29.8697 1.09505 30.2144C1.44352 30.5591 1.85755 30.8328 2.31345 31.0198C2.76936 31.2067 3.2582 31.3033 3.75201 31.3039H23.352C23.4759 31.3043 23.5983 31.2762 23.7093 31.2219C23.8203 31.1676 23.9169 31.0885 23.9914 30.9909C24.066 30.8934 24.1164 30.78 24.1387 30.6599C24.161 30.5398 24.1546 30.4162 24.12 30.2989C23.848 29.3759 23.496 28.151 23.496 28.151C23.496 28.151 28.256 32.5612 30.648 34.784C30.7618 34.89 30.9046 34.9609 31.0588 34.9879C31.213 35.0148 31.3719 34.9966 31.5157 34.9356C31.6596 34.8745 31.7821 34.7733 31.8682 34.6443C31.9542 34.5154 32.0001 34.3645 32 34.2101V3.711ZM21.344 23.5177C21.2633 23.5214 21.183 23.5063 21.1093 23.4737C21.0357 23.4412 20.9708 23.392 20.92 23.3301L20.352 22.642C20.3003 22.5793 20.2644 22.5054 20.2472 22.4264C20.23 22.3474 20.232 22.2655 20.2531 22.1874C20.2741 22.1093 20.3137 22.0372 20.3684 21.9771C20.4231 21.9169 20.4915 21.8703 20.568 21.8412C21.617 21.4789 22.5293 20.8109 23.184 19.9258C21.0331 21.2616 18.5425 21.9704 16 21.9704C13.4575 21.9704 10.9669 21.2616 8.81601 19.9258C9.47067 20.8109 10.383 21.4789 11.432 21.8412C11.5085 21.8703 11.5769 21.9169 11.6316 21.9771C11.6863 22.0372 11.7259 22.1093 11.7469 22.1874C11.768 22.2655 11.77 22.3474 11.7528 22.4264C11.7356 22.5054 11.6997 22.5793 11.648 22.642L11.08 23.3301C11.0292 23.392 10.9644 23.4412 10.8907 23.4737C10.817 23.5063 10.7367 23.5214 10.656 23.5177C9.61145 23.5097 8.5836 23.2586 7.65629 22.7847C6.72898 22.3109 5.92846 21.6278 5.32001 20.7912C5.37934 17.1388 6.27928 13.5472 7.95201 10.2872C9.40559 9.17495 11.1636 8.51641 13 8.39627C13.0287 8.39574 13.0572 8.40139 13.0834 8.41283C13.1097 8.42426 13.1331 8.44121 13.152 8.46248C13.1739 8.48629 13.1893 8.51518 13.1968 8.54646C13.2043 8.57773 13.2036 8.61036 13.1948 8.64131C13.186 8.67225 13.1694 8.70049 13.1465 8.72339C13.1237 8.74629 13.0953 8.7631 13.064 8.77226C11.5033 9.21245 10.0498 9.96095 8.79201 10.9722C11.0012 9.77816 13.4803 9.15219 16 9.15219C18.5197 9.15219 20.9988 9.77816 23.208 10.9722C21.9502 9.96095 20.4967 9.21245 18.936 8.77226C18.9047 8.7631 18.8763 8.74629 18.8535 8.72339C18.8306 8.70049 18.814 8.67225 18.8052 8.64131C18.7964 8.61036 18.7957 8.57773 18.8032 8.54646C18.8107 8.51518 18.8261 8.48629 18.848 8.46248C18.8669 8.44121 18.8903 8.42426 18.9166 8.41283C18.9428 8.40139 18.9713 8.39574 19 8.39627C20.8364 8.51641 22.5944 9.17495 24.048 10.2872C25.7207 13.5472 26.6207 17.1388 26.68 20.7912C26.0715 21.6278 25.271 22.3109 24.3437 22.7847C23.4164 23.2586 22.3886 23.5097 21.344 23.5177Z" fill="white"/>
</svg>
