<?xml version="1.0" encoding="UTF-8"?>
<svg xmlns="http://www.w3.org/2000/svg" xmlns:xlink="http://www.w3.org/1999/xlink" width="16pt" height="21pt" viewBox="0 0 16 21" version="1.1">
<defs>
<filter id="alpha" filterUnits="objectBoundingBox" x="0%" y="0%" width="100%" height="100%">
  <feColorMatrix type="matrix" in="SourceGraphic" values="0 0 0 0 1 0 0 0 0 1 0 0 0 0 1 0 0 0 1 0"/>
</filter>
<mask id="mask0">
  <g filter="url(#alpha)">
<rect x="0" y="0" width="16" height="21" style="fill:rgb(0%,0%,0%);fill-opacity:0.501961;stroke:none;"/>
  </g>
</mask>
<clipPath id="clip1">
  <rect x="0" y="0" width="16" height="21"/>
</clipPath>
<g id="surface5" clip-path="url(#clip1)">
<path style=" stroke:none;fill-rule:nonzero;fill:rgb(45.490196%,56.470588%,65.882353%);fill-opacity:1;" d="M 1.972656 1.816406 L 3.941406 1.816406 C 4.023438 1.816406 4.089844 1.75 4.089844 1.667969 C 4.089844 1.585938 4.023438 1.519531 3.941406 1.519531 L 1.972656 1.519531 C 1.890625 1.519531 1.824219 1.585938 1.824219 1.667969 C 1.824219 1.75 1.890625 1.816406 1.972656 1.816406 Z M 1.972656 1.816406 "/>
<path style=" stroke:none;fill-rule:nonzero;fill:rgb(45.490196%,56.470588%,65.882353%);fill-opacity:1;" d="M 4.761719 1.816406 L 9.691406 1.816406 C 9.773438 1.816406 9.839844 1.75 9.839844 1.667969 C 9.839844 1.585938 9.773438 1.519531 9.691406 1.519531 L 4.761719 1.519531 C 4.679688 1.519531 4.613281 1.585938 4.613281 1.667969 C 4.613281 1.75 4.679688 1.816406 4.761719 1.816406 Z M 4.761719 1.816406 "/>
</g>
</defs>
<g id="surface1">
<path style=" stroke:none;fill-rule:nonzero;fill:rgb(100%,100%,100%);fill-opacity:1;" d="M 15.695312 14.117188 L 15.695312 16.367188 C 15.675781 16.902344 15.4375 17.410156 15.035156 17.765625 C 14.632812 18.125 14.101562 18.300781 13.566406 18.257812 L 2.523438 18.257812 C 1.414062 18.320312 0.464844 17.476562 0.394531 16.367188 L 0.394531 2.210938 C 0.457031 1.097656 1.410156 0.246094 2.523438 0.304688 L 13.574219 0.304688 C 14.6875 0.246094 15.640625 1.097656 15.703125 2.210938 L 15.703125 6.210938 "/>
<path style=" stroke:none;fill-rule:nonzero;fill:rgb(89.803922%,89.803922%,89.803922%);fill-opacity:1;" d="M 0.34375 16.304688 L 0.34375 15.230469 C 0.386719 15.765625 0.640625 16.261719 1.050781 16.609375 C 1.457031 16.957031 1.988281 17.128906 2.523438 17.085938 L 13.527344 17.085938 C 14.621094 17.148438 15.570312 16.328125 15.664062 15.230469 L 15.664062 16.347656 C 15.566406 17.4375 14.617188 18.253906 13.527344 18.191406 L 2.523438 18.191406 C 1.984375 18.234375 1.449219 18.058594 1.039062 17.703125 C 0.628906 17.351562 0.378906 16.847656 0.34375 16.304688 Z M 0.34375 16.304688 "/>
<path style=" stroke:none;fill-rule:nonzero;fill:rgb(66.27451%,91.764706%,61.176471%);fill-opacity:1;" d="M 10.914062 18.140625 C 10.914062 16.707031 9.605469 15.546875 7.996094 15.546875 C 6.382812 15.546875 5.078125 16.707031 5.078125 18.140625 C 5.078125 19.570312 6.382812 20.734375 7.996094 20.734375 C 9.605469 20.734375 10.914062 19.570312 10.914062 18.140625 Z M 10.914062 18.140625 "/>
<path style=" stroke:none;fill-rule:nonzero;fill:rgb(56.862745%,80.392157%,52.54902%);fill-opacity:1;" d="M 10.785156 17.984375 C 10.738281 18.71875 10.402344 19.410156 9.847656 19.898438 C 9.292969 20.386719 8.566406 20.632812 7.828125 20.585938 C 7.089844 20.636719 6.359375 20.390625 5.804688 19.902344 C 5.25 19.414062 4.914062 18.722656 4.871094 17.984375 C 4.871094 17.875 4.871094 17.765625 4.871094 17.65625 C 5.179688 19.160156 6.617188 20.152344 8.132812 19.90625 C 9.390625 19.816406 10.429688 18.894531 10.667969 17.65625 C 10.773438 17.765625 10.785156 17.875 10.785156 17.984375 Z M 10.785156 17.984375 "/>
<path style=" stroke:none;fill-rule:nonzero;fill:rgb(25.882353%,39.607843%,44.705882%);fill-opacity:1;" d="M 13.527344 18.5625 L 11.722656 18.5625 L 11.722656 17.953125 L 13.527344 17.953125 C 14.464844 18.015625 15.277344 17.304688 15.339844 16.367188 L 15.339844 2.210938 C 15.28125 1.273438 14.480469 0.5625 13.546875 0.613281 L 2.523438 0.613281 C 2.066406 0.574219 1.613281 0.722656 1.265625 1.023438 C 0.917969 1.324219 0.707031 1.75 0.679688 2.210938 L 0.679688 16.367188 C 0.75 17.316406 1.574219 18.03125 2.523438 17.960938 L 4.496094 17.960938 L 4.496094 18.5625 L 2.523438 18.5625 C 1.238281 18.632812 0.132812 17.652344 0.0507812 16.367188 L 0.0507812 2.210938 C 0.132812 0.921875 1.238281 -0.0585938 2.523438 0.0117188 L 13.527344 0.0117188 C 14.816406 -0.0625 15.921875 0.921875 16 2.210938 L 16 16.367188 C 15.921875 17.65625 14.816406 18.636719 13.527344 18.5625 Z M 13.527344 18.5625 "/>
<path style=" stroke:none;fill-rule:nonzero;fill:rgb(25.882353%,39.607843%,44.705882%);fill-opacity:1;" d="M 3.449219 5.699219 L 3.449219 4.714844 C 3.429688 4.460938 3.535156 4.214844 3.726562 4.050781 C 3.949219 3.890625 4.222656 3.8125 4.496094 3.835938 C 4.757812 3.828125 5.019531 3.894531 5.246094 4.03125 C 5.433594 4.148438 5.546875 4.355469 5.539062 4.574219 C 5.550781 4.652344 5.527344 4.734375 5.472656 4.792969 C 5.394531 4.835938 5.304688 4.859375 5.214844 4.851562 C 5 4.851562 4.890625 4.792969 4.890625 4.671875 L 4.890625 4.507812 C 4.871094 4.445312 4.820312 4.402344 4.761719 4.386719 L 4.652344 4.386719 C 4.601562 4.378906 4.546875 4.378906 4.496094 4.386719 C 4.390625 4.371094 4.285156 4.40625 4.210938 4.480469 C 4.136719 4.554688 4.101562 4.660156 4.121094 4.761719 L 4.121094 5.75 C 4.117188 5.84375 4.160156 5.933594 4.234375 5.996094 C 4.304688 6.054688 4.402344 6.082031 4.496094 6.0625 C 4.597656 6.082031 4.699219 6.046875 4.773438 5.976562 C 4.847656 5.902344 4.882812 5.800781 4.871094 5.699219 L 4.871094 5.570312 L 4.625 5.570312 C 4.570312 5.570312 4.523438 5.546875 4.496094 5.5 C 4.417969 5.414062 4.417969 5.28125 4.496094 5.195312 C 4.523438 5.148438 4.578125 5.121094 4.632812 5.128906 L 5.332031 5.128906 C 5.382812 5.113281 5.433594 5.113281 5.480469 5.128906 C 5.492188 5.167969 5.492188 5.214844 5.480469 5.253906 L 5.480469 5.648438 C 5.503906 5.902344 5.398438 6.148438 5.207031 6.308594 C 4.984375 6.460938 4.722656 6.539062 4.457031 6.527344 C 4.203125 6.550781 3.953125 6.492188 3.734375 6.359375 C 3.539062 6.199219 3.433594 5.953125 3.449219 5.699219 Z M 3.449219 5.699219 "/>
<path style=" stroke:none;fill-rule:nonzero;fill:rgb(25.882353%,39.607843%,44.705882%);fill-opacity:1;" d="M 5.875 6.359375 L 5.875 4.011719 C 5.878906 3.960938 5.90625 3.910156 5.953125 3.886719 C 6.023438 3.871094 6.09375 3.871094 6.160156 3.886719 L 6.902344 3.886719 C 7.167969 3.871094 7.433594 3.945312 7.648438 4.101562 C 7.839844 4.265625 7.945312 4.511719 7.925781 4.761719 L 7.925781 5.75 C 7.929688 5.984375 7.828125 6.207031 7.648438 6.359375 C 7.429688 6.503906 7.167969 6.582031 6.902344 6.578125 L 6.160156 6.578125 C 6.089844 6.578125 6.015625 6.554688 5.953125 6.515625 C 5.890625 6.492188 5.855469 6.425781 5.875 6.359375 Z M 6.527344 6.023438 L 6.902344 6.023438 C 7.003906 6.039062 7.105469 6.007812 7.179688 5.9375 C 7.253906 5.863281 7.289062 5.761719 7.277344 5.660156 L 7.277344 4.671875 C 7.25 4.492188 7.082031 4.363281 6.902344 4.386719 L 6.527344 4.386719 Z M 6.527344 6.023438 "/>
<path style=" stroke:none;fill-rule:nonzero;fill:rgb(25.882353%,39.607843%,44.705882%);fill-opacity:1;" d="M 8.339844 6.359375 L 8.339844 4.011719 C 8.347656 3.957031 8.386719 3.90625 8.4375 3.886719 C 8.496094 3.871094 8.558594 3.871094 8.617188 3.886719 L 9.425781 3.886719 C 9.679688 3.871094 9.933594 3.945312 10.144531 4.09375 C 10.332031 4.253906 10.433594 4.496094 10.410156 4.742188 C 10.425781 4.992188 10.324219 5.234375 10.132812 5.394531 C 9.921875 5.523438 9.671875 5.582031 9.425781 5.570312 L 9.011719 5.570312 L 9.011719 6.359375 C 9.007812 6.421875 8.96875 6.476562 8.910156 6.496094 C 8.765625 6.558594 8.605469 6.558594 8.457031 6.496094 C 8.394531 6.480469 8.347656 6.425781 8.339844 6.359375 Z M 8.992188 5.117188 L 9.425781 5.117188 C 9.527344 5.132812 9.632812 5.101562 9.707031 5.027344 C 9.78125 4.953125 9.816406 4.847656 9.800781 4.742188 C 9.808594 4.640625 9.773438 4.542969 9.699219 4.472656 C 9.625 4.402344 9.523438 4.371094 9.425781 4.386719 L 9.011719 4.386719 Z M 8.992188 5.117188 "/>
<path style=" stroke:none;fill-rule:nonzero;fill:rgb(25.882353%,39.607843%,44.705882%);fill-opacity:1;" d="M 10.714844 6.359375 L 10.714844 4.011719 C 10.71875 3.964844 10.742188 3.917969 10.777344 3.882812 C 10.816406 3.851562 10.863281 3.832031 10.914062 3.835938 L 11.78125 3.835938 C 12.460938 3.835938 12.765625 4.101562 12.765625 4.632812 C 12.800781 4.972656 12.589844 5.285156 12.265625 5.382812 L 12.777344 6.210938 C 12.78125 6.230469 12.78125 6.25 12.777344 6.269531 C 12.765625 6.355469 12.71875 6.429688 12.648438 6.476562 C 12.566406 6.542969 12.464844 6.574219 12.363281 6.578125 C 12.277344 6.578125 12.199219 6.539062 12.15625 6.46875 L 11.582031 5.480469 L 11.394531 5.480469 L 11.394531 6.359375 C 11.394531 6.417969 11.359375 6.46875 11.308594 6.496094 C 11.160156 6.554688 10.992188 6.554688 10.84375 6.496094 C 10.777344 6.484375 10.722656 6.429688 10.714844 6.359375 Z M 11.394531 5.027344 L 11.808594 5.027344 C 11.910156 5.039062 12.011719 5.007812 12.097656 4.949219 C 12.164062 4.878906 12.195312 4.78125 12.183594 4.683594 C 12.191406 4.570312 12.148438 4.464844 12.066406 4.386719 C 11.972656 4.363281 11.875 4.363281 11.78125 4.386719 L 11.394531 4.386719 Z M 11.394531 5.027344 "/>
<path style=" stroke:none;fill-rule:nonzero;fill:rgb(25.882353%,39.607843%,44.705882%);fill-opacity:1;" d="M 5.390625 8.203125 L 10.609375 8.203125 L 10.609375 8.804688 L 5.390625 8.804688 Z M 5.390625 8.203125 "/>
<path style=" stroke:none;fill-rule:nonzero;fill:rgb(25.882353%,39.607843%,44.705882%);fill-opacity:1;" d="M 5.390625 9.660156 L 10.609375 9.660156 L 10.609375 10.261719 L 5.390625 10.261719 Z M 5.390625 9.660156 "/>
<path style=" stroke:none;fill-rule:nonzero;fill:rgb(25.882353%,39.607843%,44.705882%);fill-opacity:1;" d="M 5.390625 11.121094 L 10.609375 11.121094 L 10.609375 11.722656 L 5.390625 11.722656 Z M 5.390625 11.121094 "/>
<path style=" stroke:none;fill-rule:nonzero;fill:rgb(25.882353%,39.607843%,44.705882%);fill-opacity:1;" d="M 8.003906 20.988281 C 6.304688 21.085938 4.847656 19.789062 4.742188 18.089844 C 4.867188 16.40625 6.320312 15.136719 8.003906 15.230469 C 9.703125 15.136719 11.15625 16.433594 11.257812 18.128906 C 11.132812 19.808594 9.6875 21.078125 8.003906 20.988281 Z M 8.003906 15.792969 C 6.65625 15.714844 5.5 16.742188 5.421875 18.089844 C 5.507812 19.433594 6.660156 20.457031 8.003906 20.378906 C 9.34375 20.449219 10.492188 19.429688 10.578125 18.089844 C 10.5 16.746094 9.347656 15.722656 8.003906 15.792969 Z M 8.003906 15.792969 "/>
<path style=" stroke:none;fill-rule:nonzero;fill:rgb(25.882353%,39.607843%,44.705882%);fill-opacity:1;" d="M 7.71875 19.894531 L 6.347656 18.742188 L 6.820312 18.296875 L 7.609375 18.96875 L 9.199219 16.886719 L 9.757812 17.222656 Z M 7.71875 19.894531 "/>
<path style=" stroke:none;fill-rule:nonzero;fill:rgb(97.647059%,97.647059%,97.647059%);fill-opacity:1;" d="M 6.191406 17.65625 C 6.1875 17.605469 6.1875 17.550781 6.191406 17.5 C 6.242188 17.347656 6.3125 17.203125 6.398438 17.066406 C 6.757812 16.613281 7.320312 16.371094 7.898438 16.425781 C 7.976562 16.425781 8.042969 16.359375 8.042969 16.277344 C 8.042969 16.195312 7.976562 16.128906 7.898438 16.128906 C 7.234375 16.070312 6.585938 16.339844 6.160156 16.847656 C 5.96875 17.089844 5.847656 17.378906 5.804688 17.6875 C 5.804688 17.882812 6.121094 17.882812 6.140625 17.6875 Z M 6.191406 17.65625 "/>
<use xlink:href="#surface5" mask="url(#mask0)"/>
</g>
</svg>
