<svg width="37" height="35" viewBox="0 0 37 35" fill="none" xmlns="http://www.w3.org/2000/svg">
<path fill-rule="evenodd" clip-rule="evenodd" d="M13.2473 33.3481C13.2474 33.6211 13.1798 33.8898 13.0505 34.1303C12.9213 34.3708 12.7345 34.5755 12.5068 34.7261C12.279 34.8767 12.0176 34.9685 11.7457 34.9933C11.4738 35.0181 11.2 34.9751 10.9488 34.8682C7.11398 33.2049 3.96925 30.2713 2.04392 26.5611C0.118589 22.8509 -0.469789 18.5907 0.377818 14.4975C1.22542 10.4043 3.45727 6.72812 6.69768 4.08764C9.9381 1.44716 13.9893 0.00362505 18.1693 6.81836e-06C22.3493 -0.00361141 26.4029 1.43291 29.6479 4.06777C32.8929 6.70264 35.1311 10.375 35.9858 14.4667C36.8405 18.5584 36.2595 22.8196 34.3406 26.5331C32.4216 30.2466 29.282 33.1857 25.4501 34.8557C25.2009 34.9617 24.9294 35.0043 24.6597 34.9797C24.39 34.9551 24.1307 34.8641 23.9048 34.7147C23.6789 34.5654 23.4936 34.3624 23.3654 34.1239C23.2371 33.8854 23.17 33.6188 23.17 33.3481C23.157 31.3972 23.157 28.9291 23.157 28.9291C23.157 27.6149 22.635 26.3547 21.7058 25.4255C21.6026 25.3222 21.4954 25.2241 21.3843 25.1311C21.3548 25.1065 21.3336 25.0734 21.3235 25.0363C21.3135 24.9992 21.3151 24.9599 21.3282 24.9237C21.3413 24.8876 21.3652 24.8564 21.3967 24.8343C21.4282 24.8122 21.4657 24.8004 21.5042 24.8004L21.5054 24.8C23.6956 24.8 25.7961 23.9299 27.3448 22.3812C28.8935 20.8325 29.7635 18.7321 29.7635 16.5419C29.7664 14.7491 29.1832 13.0046 28.1027 11.574C28.384 10.3177 28.3568 9.01197 28.0236 7.76843L27.8832 7.24421C27.8265 7.03266 27.6881 6.8523 27.4984 6.74279C27.3087 6.63328 27.0833 6.6036 26.8718 6.66027L26.3476 6.80066C25.1902 7.1108 24.1175 7.67784 23.2095 8.45964C22.6491 8.3423 22.078 8.28336 21.5054 8.28374H14.8989C14.3265 8.28341 13.7555 8.34239 13.1953 8.45972C12.2872 7.67793 11.2146 7.11088 10.0572 6.80075L9.53294 6.66036C9.32139 6.60368 9.09599 6.63336 8.90633 6.74287C8.71666 6.85238 8.57826 7.03274 8.52157 7.24429L8.38118 7.76852C8.04795 9.01205 8.02078 10.3178 8.30199 11.5741C7.22145 13.0046 6.6381 14.7491 6.64078 16.5419C6.64078 18.7321 7.51083 20.8325 9.05953 22.3812C10.6082 23.9299 12.7087 24.8 14.8989 24.8H14.9001C14.9385 24.8002 14.9759 24.8121 15.0073 24.8343C15.0387 24.8564 15.0625 24.8876 15.0755 24.9237C15.0886 24.9598 15.0902 24.999 15.0803 25.0361C15.0703 25.0732 15.0492 25.1063 15.0198 25.131C14.909 25.2241 14.8019 25.3223 14.6986 25.4255C13.9711 26.1529 13.4881 27.0888 13.3166 28.1032H12.4215C11.6523 28.1032 10.8936 27.9241 10.2056 27.5801C9.51757 27.2361 8.9191 26.7367 8.45757 26.1213L8.45707 26.1206C8.14954 25.7106 7.75076 25.3778 7.29232 25.1486C6.83387 24.9193 6.32835 24.8 5.8158 24.8H5.81497C5.59595 24.8 5.3859 24.887 5.23103 25.0419C5.07616 25.1967 4.98916 25.4068 4.98916 25.6258C4.98916 25.8448 5.07616 26.0549 5.23103 26.2097C5.3859 26.3646 5.59595 26.4516 5.81497 26.4516C6.06681 26.4516 6.31435 26.5168 6.5335 26.6409C6.75265 26.765 6.93593 26.9437 7.0655 27.1597L7.19366 27.3732C7.78067 28.3516 8.61103 29.1612 9.60388 29.7233C10.5967 30.2854 11.7182 30.5808 12.8592 30.5807H13.2473V33.3481Z" fill="white"/>
</svg>
