<?xml version="1.0" encoding="UTF-8"?>
<svg xmlns="http://www.w3.org/2000/svg" xmlns:xlink="http://www.w3.org/1999/xlink" width="16pt" height="19pt" viewBox="0 0 16 19" version="1.1">
<g id="surface1">
<path style=" stroke:none;fill-rule:nonzero;fill:rgb(100%,56.862745%,0%);fill-opacity:1;" d="M 15.226562 8.082031 L 12.164062 6.269531 L 7.960938 9.546875 L 12.164062 12.785156 L 15.234375 10.972656 C 15.71875 10.644531 16.003906 10.113281 16.003906 9.546875 C 16.003906 8.976562 15.71875 8.445312 15.234375 8.121094 Z M 15.226562 8.082031 "/>
<path style=" stroke:none;fill-rule:nonzero;fill:rgb(14.509804%,85.098039%,97.254902%);fill-opacity:1;" d="M 9.03125 9.507812 L 5.308594 14.492188 L 0.472656 18.460938 C 0.160156 18.140625 -0.0117188 17.714844 -0.0078125 17.273438 L -0.0078125 1.71875 C -0.0117188 1.277344 0.160156 0.851562 0.472656 0.527344 L 5.308594 4.523438 Z M 9.03125 9.507812 "/>
<path style=" stroke:none;fill-rule:nonzero;fill:rgb(0%,75.294118%,94.509804%);fill-opacity:1;" d="M 9.019531 9.507812 L 7.960938 10.945312 L 7.960938 8.082031 Z M 9.019531 9.507812 "/>
<path style=" stroke:none;fill-rule:nonzero;fill:rgb(49.803922%,90.980392%,50.588235%);fill-opacity:1;" d="M 12.164062 6.230469 L 9.03125 9.507812 L 0.472656 0.527344 C 0.570312 0.433594 0.679688 0.347656 0.792969 0.273438 C 1.285156 -0.0351562 1.917969 -0.0351562 2.410156 0.273438 L 7.960938 3.707031 Z M 12.164062 6.230469 "/>
<path style=" stroke:none;fill-rule:nonzero;fill:rgb(35.686275%,78.823529%,50.196078%);fill-opacity:1;" d="M 12.164062 6.230469 L 9.019531 9.507812 L 7.960938 8.402344 L 7.960938 3.707031 Z M 12.164062 6.230469 "/>
<path style=" stroke:none;fill-rule:nonzero;fill:rgb(100%,38.823529%,48.235294%);fill-opacity:1;" d="M 12.164062 12.785156 L 7.960938 15.3125 L 2.410156 18.699219 C 2.167969 18.851562 1.886719 18.9375 1.597656 18.941406 C 1.316406 18.9375 1.042969 18.859375 0.804688 18.714844 C 0.683594 18.640625 0.574219 18.558594 0.472656 18.460938 L 9.019531 9.507812 Z M 12.164062 12.785156 "/>
<path style=" stroke:none;fill-rule:nonzero;fill:rgb(90.196078%,22.352941%,31.372549%);fill-opacity:1;" d="M 12.164062 12.796875 L 7.960938 15.320312 L 7.960938 10.617188 L 9.019531 9.507812 Z M 12.164062 12.796875 "/>
</g>
</svg>
