<svg width="62" height="86" viewBox="0 0 62 86" fill="none" xmlns="http://www.w3.org/2000/svg">
<path fill-rule="evenodd" clip-rule="evenodd" d="M29.5 33H9.92107C7.41141 33.0002 4.86609 34.059 3.04671 35.8179C1.22732 37.5769 0.141273 39.9796 0.0128403 42.5299C-0.115593 45.0802 0.723408 47.5833 2.35657 49.5222C3.98973 51.4612 6.29232 52.6879 8.78882 52.9491C9.12166 52.9679 9.45124 53 9.78952 53H44.5965C49.2121 52.9998 53.6387 51.134 56.9024 47.8131C60.1662 44.4922 61.9998 39.9881 62 35.2916V0C61.9998 8.806 58.5618 17.2513 52.4422 23.4781C46.3227 29.7048 38.1544 32.9998 29.5 33Z" fill="#464646"/>
<path fill-rule="evenodd" clip-rule="evenodd" d="M29.5 53H9.92106C7.4114 52.9998 4.86608 51.941 3.0467 50.1821C1.22731 48.4231 0.141261 46.0204 0.0128288 43.4701C-0.115603 40.9198 0.723395 38.4167 2.35656 36.4778C3.98972 34.5388 6.29231 33.3121 8.78881 33.0509C9.12165 33.0321 9.45123 33 9.78951 33H44.5965C49.2121 33.0002 62 36.4778 62 36.4778C62 36.4778 61.9998 46.0119 62 50.7084V86C61.9998 77.194 58.5618 68.7487 52.4422 62.5219C46.3226 56.2952 38.1544 53.0002 29.5 53Z" fill="#464646"/>
</svg>
