<svg width="71" height="71" viewBox="0 0 71 71" fill="none" xmlns="http://www.w3.org/2000/svg">
<path fill-rule="evenodd" clip-rule="evenodd" d="M53.25 71H17.75C13.0425 70.9998 8.52781 69.1296 5.19908 65.8009C1.87036 62.4722 0.000205941 57.9575 0 53.25L0 17.75C0.000205941 13.0425 1.87036 8.52781 5.19908 5.19908C8.52781 1.87036 13.0425 0.000205941 17.75 0L53.25 0C57.9576 0 62.4724 1.87008 65.8011 5.19885C69.1299 8.52762 71 13.0424 71 17.75V53.25C71 57.9576 69.1299 62.4724 65.8011 65.8011C62.4724 69.1299 57.9576 71 53.25 71Z" fill="#2D2D2D"/>
<path fill-rule="evenodd" clip-rule="evenodd" d="M35.6316 22.875H55.2105C57.7201 22.8748 60.1339 21.8963 61.9533 20.1415C63.7727 18.3867 64.8587 15.9897 64.9872 13.4454C65.1156 10.9011 64.2766 8.40397 62.6434 6.46958C61.0103 4.5352 58.7077 3.31136 56.2112 3.05079C55.8783 3.03202 55.5488 3 55.2105 3H20.4035C15.7879 3.0002 11.3613 4.86158 8.09759 8.17467C4.83384 11.4878 3.0002 15.9812 3 20.6667L3 56C3.0002 47.2148 6.43822 38.7894 12.5578 32.5773C18.6773 26.3652 26.9772 22.8752 35.6316 22.875" fill="#464646"/>
<path fill-rule="evenodd" clip-rule="evenodd" d="M53.25 71H17.75C13.0425 70.9998 8.52781 69.1297 5.19908 65.8009C1.87036 62.4722 0.000205941 57.9575 0 53.25L0 17.75C0.000205941 13.0425 1.87036 8.52781 5.19908 5.19908C8.52781 1.87036 13.0425 0.00020606 17.75 1.19209e-07H53.25V1.19209e-07C63.0531 1.19209e-07 71 7.94695 71 17.75V17.75V53.25V53.25C71 63.0531 63.0531 71 53.25 71V71Z" fill="#199BDF"/>
<path fill-rule="evenodd" clip-rule="evenodd" d="M35.6315 22.875H55.2105C57.7201 22.8748 60.1339 21.8963 61.9533 20.1415C63.7727 18.3867 64.8587 15.9897 64.9872 13.4454C65.1156 10.9011 64.2766 8.40397 62.6434 6.46958C61.0103 4.5352 58.7077 3.31136 56.2112 3.05079C55.8783 3.03202 55.5488 3 55.2105 3H20.4035C15.7879 3.0002 11.3613 4.86158 8.09759 8.17467C4.83384 11.4878 3.0002 15.9812 3 20.6667L3 56C3.0002 47.2148 6.43822 38.7894 12.5578 32.5773C18.6773 26.3652 26.9772 22.8752 35.6315 22.875" fill="#32B4FF"/>
<path fill-rule="evenodd" clip-rule="evenodd" d="M53 35.6381C49.4399 35.6381 45.9598 36.6725 42.9997 38.6106C40.0397 40.5487 37.7326 43.3034 36.3702 46.5264C35.0078 49.7493 34.6513 53.2957 35.3459 56.7172C36.0404 60.1386 37.7547 63.2814 40.2721 65.7482C42.7894 68.2149 48.5083 70.3194 52 71C55.5 71 57.4507 71 61 71C64.5493 71 67.9578 71 71 71C71 67.0252 71 56.7646 71 53.2762V18C71 22.6779 69.1036 27.1642 65.7279 30.472C62.3523 33.7798 57.7739 35.6381 53 35.6381Z" fill="#0082BE"/>
</svg>
