<svg width="32" height="27" viewBox="0 0 32 27" fill="none" xmlns="http://www.w3.org/2000/svg">
<path fill-rule="evenodd" clip-rule="evenodd" d="M28.7533 0.175958C29.1384 0.018664 29.5588 -0.0345226 29.9714 0.0218455C30.3841 0.0782136 30.7742 0.24211 31.1018 0.496746C31.4294 0.751382 31.6827 1.0876 31.8357 1.47096C31.9888 1.85432 32.036 2.27104 31.9727 2.67842C31.0598 8.55212 29.3862 19.3153 28.4978 25.0285C28.4363 25.4239 28.2728 25.7969 28.023 26.1114C27.7732 26.4259 27.4457 26.6714 27.072 26.824C26.6983 26.9767 26.2911 27.0314 25.8898 26.9828C25.4885 26.9342 25.1067 26.784 24.7812 26.5468C21.6384 24.2559 16.9265 20.8211 14.5342 19.0766C14.3496 18.942 14.1971 18.7689 14.0875 18.5696C13.9779 18.3703 13.9138 18.1496 13.8999 17.9231C13.8859 17.6966 13.9224 17.4699 14.0067 17.2589C14.091 17.0479 14.2212 16.8578 14.3879 16.702C16.58 14.6537 20.946 10.5741 23.9499 7.76705C24.0206 7.70051 24.0637 7.61024 24.0707 7.51391C24.0777 7.41758 24.0481 7.32214 23.9877 7.2463C23.9272 7.17045 23.8404 7.11966 23.7441 7.10388C23.6478 7.08811 23.549 7.10848 23.4671 7.161C19.6154 9.64641 13.7167 13.4524 10.8256 15.3178C10.2838 15.6675 9.67491 15.9026 9.03699 16.0087C8.39908 16.1147 7.74591 16.0892 7.11839 15.934C5.52647 15.5403 3.23028 14.9722 1.18686 14.4669C0.866938 14.3878 0.580396 14.2109 0.368048 13.9612C0.155701 13.7116 0.0283771 13.4021 0.00421293 13.0767C-0.0199512 12.7513 0.0602767 12.4267 0.233469 12.1491C0.40666 11.8714 0.663984 11.6549 0.968788 11.5304C8.08217 8.62342 22.003 2.93495 28.7533 0.175958Z" fill="white"/>
</svg>
